# xmcd CD database file
#
# Track frame offsets:
#	150
#	14990
#	28675
#	43342
#	59078
#	75431
#	91208
#	106142
#	119447
#	131527
#	146944
#	160949
#	174444
#	187035
#	201539
#	214338
#
# Disc length: 3034 seconds
#
# Revision: 0
# Processed by: cddbd v1.5PL3 Copyright (c) Steve Scherf et al.
# Submitted via: CDex 1.50
#
DISCID=f60bd810
DTITLE=Various Artist - 本物の魅力VOCAL Man　disk-2
DYEAR=1900
DGENRE=Jazz
TTITLE0=モナリザ/ナットキングコール
TTITLE1=懐かしのニューオリンズ/ルイアームストロング
TTITLE2=スターダスト/フランクシナトラ
TTITLE3=シュガー/ルイアームストロング
TTITLE4=ビギンザビギン/ビングクロスビー
TTITLE5=魅惑の宵/ペリーコモ
TTITLE6=ミニーザムチャー/キャプキャロウエイ
TTITLE7=プリズナーオブラブ/ビリーエクスタイン
TTITLE8=ディアリービラウド/フレッドアステア
TTITLE9=エンブレイザブルユー/ナットキングコール
TTITLE10=捧ぐるは愛のみ/メルトーメ
TTITLE11=ブルーレディに紅いバラ/ヴォーンモンロー
TTITLE12=知らないでしょう/ディックヘイムス
TTITLE13=時の終わりまで/ペリーコモ
TTITLE14=我が心君に泣く/ガイミッチェル
TTITLE15=センチメンタルリーズンズ/ナットキングコール
EXTD=
EXTT0=
EXTT1=
EXTT2=
EXTT3=
EXTT4=
EXTT5=
EXTT6=
EXTT7=
EXTT8=
EXTT9=
EXTT10=
EXTT11=
EXTT12=
EXTT13=
EXTT14=
EXTT15=
PLAYORDER=
